<svg xmlns="http://www.w3.org/2000/svg" version="1.1" xmlns:xlink="http://www.w3.org/1999/xlink" viewBox="0 0 200 200"><rect width="200" height="200" fill="url('#gradient')"></rect><defs><linearGradient id="gradient" gradientTransform="rotate(360 0.5 0.5)"><stop offset="0%" stop-color="#37af61"></stop><stop offset="100%" stop-color="#37af61"></stop></linearGradient></defs><g><g fill="#1c2e40" transform="matrix(1.9801733718604135,0,0,1.9801733718604135,10.872632202213943,114.65562632786059)" stroke="#37af61" stroke-width="0.2"><path d="M10.03-8.30L10.03-5.66L4.50-5.66L4.50 0L1.07 0L1.07-14.22L10.59-14.22L10.59-11.57L4.50-11.57L4.50-8.30L10.03-8.30ZM18.06-10.64L18.00-7.59L16.91-7.67Q15.36-7.67 14.92-6.69L14.92-6.69L14.92 0L11.63 0L11.63-10.57L14.72-10.57L14.82-9.21Q15.65-10.76 17.14-10.76L17.14-10.76Q17.67-10.76 18.06-10.64L18.06-10.64ZM24.11 0.20L24.11 0.20Q21.68 0.20 20.18-1.25Q18.67-2.71 18.67-5.03L18.67-5.03L18.67-5.30Q18.67-6.92 19.27-8.16Q19.87-9.40 21.03-10.08Q22.18-10.76 23.76-10.76L23.76-10.76Q25.99-10.76 27.28-9.38Q28.56-8.00 28.56-5.53L28.56-5.53L28.56-4.25L22.02-4.25Q22.20-3.36 22.79-2.85Q23.39-2.34 24.34-2.34L24.34-2.34Q25.90-2.34 26.78-3.44L26.78-3.44L28.28-1.66Q27.67-0.81 26.54-0.31Q25.41 0.20 24.11 0.20ZM23.74-8.22L23.74-8.22Q22.29-8.22 22.02-6.31L22.02-6.31L25.34-6.31L25.34-6.56Q25.36-7.35 24.94-7.79Q24.52-8.22 23.74-8.22ZM35.42-2.97L35.42-2.97Q35.42-3.39 34.98-3.64Q34.54-3.90 33.31-4.17Q32.08-4.44 31.28-4.89Q30.48-5.33 30.06-5.97Q29.64-6.60 29.64-7.42L29.64-7.42Q29.64-8.88 30.84-9.82Q32.04-10.76 33.98-10.76L33.98-10.76Q36.07-10.76 37.34-9.81Q38.61-8.87 38.61-7.32L38.61-7.32L35.31-7.32Q35.31-8.59 33.97-8.59L33.97-8.59Q33.46-8.59 33.11-8.31Q32.75-8.02 32.75-7.59L32.75-7.59Q32.75-7.15 33.18-6.88Q33.61-6.60 34.56-6.43Q35.50-6.25 36.21-6.01L36.21-6.01Q38.59-5.19 38.59-3.07L38.59-3.07Q38.59-1.62 37.31-0.71Q36.03 0.20 33.98 0.20L33.98 0.20Q32.63 0.20 31.56-0.29Q30.50-0.78 29.90-1.62Q29.31-2.46 29.31-3.39L29.31-3.39L32.38-3.39Q32.40-2.66 32.87-2.32Q33.34-1.98 34.07-1.98L34.07-1.98Q34.75-1.98 35.08-2.26Q35.42-2.53 35.42-2.97ZM43.35-15L43.35-9.43Q44.40-10.76 46.04-10.76L46.04-10.76Q47.79-10.76 48.68-9.73Q49.57-8.69 49.59-6.67L49.59-6.67L49.59 0L46.29 0L46.29-6.59Q46.29-7.43 45.95-7.83Q45.61-8.22 44.79-8.22L44.79-8.22Q43.77-8.22 43.35-7.58L43.35-7.58L43.35 0L40.06 0L40.06-15L43.35-15ZM59.67-4.81L63.08-4.81Q63.01-3.33 62.28-2.19Q61.54-1.05 60.22-0.43Q58.90 0.20 57.20 0.20L57.20 0.20Q54.39 0.20 52.78-1.63Q51.17-3.46 51.17-6.79L51.17-6.79L51.17-7.49Q51.17-9.58 51.90-11.15Q52.63-12.71 53.99-13.57Q55.36-14.42 57.16-14.42L57.16-14.42Q59.75-14.42 61.32-13.06Q62.89-11.70 63.11-9.31L63.11-9.31L59.69-9.31Q59.65-10.61 59.03-11.17Q58.42-11.74 57.16-11.74L57.16-11.74Q55.88-11.74 55.28-10.78Q54.69-9.82 54.66-7.72L54.66-7.72L54.66-6.72Q54.66-4.44 55.23-3.47Q55.80-2.49 57.20-2.49L57.20-2.49Q58.38-2.49 59.00-3.05Q59.63-3.60 59.67-4.81L59.67-4.81ZM73.79 0L70.50 0Q70.32-0.32 70.19-0.95L70.19-0.95Q69.28 0.20 67.65 0.20L67.65 0.20Q66.15 0.20 65.11-0.71Q64.06-1.61 64.06-2.98L64.06-2.98Q64.06-4.70 65.33-5.58Q66.60-6.46 69.02-6.46L69.02-6.46L70.04-6.46L70.04-7.01Q70.04-8.47 68.78-8.47L68.78-8.47Q67.61-8.47 67.61-7.31L67.61-7.31L64.32-7.31Q64.32-8.85 65.62-9.80Q66.92-10.76 68.95-10.76Q70.97-10.76 72.14-9.78Q73.31-8.79 73.34-7.07L73.34-7.07L73.34-2.39Q73.36-0.94 73.79-0.17L73.79-0.17L73.79 0ZM68.44-2.15L68.44-2.15Q69.05-2.15 69.46-2.41Q69.86-2.68 70.04-3.01L70.04-3.01L70.04-4.70L69.08-4.70Q67.36-4.70 67.36-3.15L67.36-3.15Q67.36-2.71 67.67-2.43Q67.97-2.15 68.44-2.15ZM81.61-10.64L81.55-7.59L80.47-7.67Q78.92-7.67 78.48-6.69L78.48-6.69L78.48 0L75.19 0L75.19-10.57L78.27-10.57L78.38-9.21Q79.21-10.76 80.69-10.76L80.69-10.76Q81.22-10.76 81.61-10.64L81.61-10.64ZM83.77-13.19L87.06-13.19L87.06-10.57L88.80-10.57L88.80-8.28L87.06-8.28L87.06-3.45Q87.06-2.85 87.28-2.62Q87.49-2.38 88.13-2.38L88.13-2.38Q88.61-2.38 88.95-2.44L88.95-2.44L88.95-0.09Q88.06 0.20 87.09 0.20L87.09 0.20Q85.39 0.20 84.58-0.61Q83.77-1.41 83.77-3.04L83.77-3.04L83.77-8.28L82.42-8.28L82.42-10.57L83.77-10.57L83.77-13.19Z"></path></g></g></svg>